<?xml version="1.0" encoding="utf-8"?>
<!-- Generator: Adobe Illustrator 27.5.0, SVG Export Plug-In . SVG Version: 6.00 Build 0)  -->
<svg version="1.1" id="Layer_1" xmlns="http://www.w3.org/2000/svg" xmlns:xlink="http://www.w3.org/1999/xlink" x="0px" y="0px"
	 viewBox="0 0 2599 1733" style="enable-background:new 0 0 2599 1733;" xml:space="preserve">
<g>
	<g>
		<defs>
			<rect id="SVGID_1_" width="2598.076" height="1732.051"/>
		</defs>
		
			<linearGradient id="SVGID_00000135677877924097214920000003418729030859738021_" gradientUnits="userSpaceOnUse" x1="1299.0381" y1="1617.5796" x2="1299.0381" y2="-425.4956">
			<stop  offset="0" style="stop-color:#FFF2EB"/>
			<stop  offset="1" style="stop-color:#F8F8FF"/>
		</linearGradient>
		<use xlink:href="#SVGID_1_"  style="overflow:visible;fill:url(#SVGID_00000135677877924097214920000003418729030859738021_);"/>
		<clipPath id="SVGID_00000011718104603604206630000008789965537872854920_">
			<use xlink:href="#SVGID_1_"  style="overflow:visible;"/>
		</clipPath>
		
			<linearGradient id="SVGID_00000153668270946759279870000017383845107240429703_" gradientUnits="userSpaceOnUse" x1="1128.0709" y1="727.4985" x2="1128.0709" y2="1701.1598">
			<stop  offset="0" style="stop-color:#FF9696"/>
			<stop  offset="0.2188" style="stop-color:#FF9090"/>
			<stop  offset="0.5191" style="stop-color:#FF7E7F"/>
			<stop  offset="0.8654" style="stop-color:#FF6164"/>
			<stop  offset="1" style="stop-color:#FF5457"/>
		</linearGradient>
		
			<path style="clip-path:url(#SVGID_00000011718104603604206630000008789965537872854920_);fill:url(#SVGID_00000153668270946759279870000017383845107240429703_);" d="
			M2755.877,688.489c-15.816,3.582-31.366,9.586-46.13,18.167c-70.772,41.134-99.209,127.174-70.204,201.092
			c-52.324-94.397-168.21-136.698-270.433-94.612c-110.08,45.322-162.576,171.3-117.255,281.38
			c-41.75-40.84-108.704-40.102-149.543,1.647c-40.842,41.75-40.103,108.703,1.647,149.543
			c-43.79-9.245-86.781,18.758-96.027,62.547c-9.246,43.789,18.759,86.782,62.547,96.026c-38.603-4.436-73.716,21.058-82.229,58.053
			c-44.662-33.202-103.968-45.47-161.251-27.895c-77.591,23.805-127.593,95.001-128.003,172.092
			c-8.871-5.91-18.974-10.286-30.056-12.566c-40.943-8.42-81.004,14.07-96.144,51.479c13.643-55.944-15.776-114.712-70.895-136.195
			c-55.153-21.497-116.62,1.9-144.413,52.38c37.076-86.12,2.592-187.73-81.623-232.684
			c-88.807-47.406-199.229-13.843-246.635,74.965c8.786-47.438-22.547-93.017-69.985-101.804
			c-47.439-8.786-93.016,22.548-101.805,69.986c0.337-31.94-25.283-58.105-57.223-58.441c-10.733-0.112-20.78,2.759-29.448,7.764
			c10.257-37.095,1.056-78.477-27.911-107.845c-43.14-43.738-113.569-44.221-157.307-1.081
			c-7.771-52.551-56.669-88.852-109.221-81.082c-52.548,7.77-88.851,56.67-81.08,109.221c-2.339-23.679-20.331-41.982-42.703-45.801
			c0.042-0.749,0.139-1.483,0.155-2.24c0.572-32.716-25.483-59.702-58.198-60.277c53.599-90.017,24.078-206.443-65.941-260.043
			c-90.015-53.6-206.441-24.078-260.042,65.939c-15.919-59.674-77.201-95.144-136.874-79.224
			c-20.708,5.524-38.4,16.593-52.143,31.078c-4.888-2.053-10.149-3.446-15.694-4.022c53.907-43.428,62.404-122.336,18.976-176.244
			c-43.427-53.909-122.335-62.406-176.245-18.977c27.853-27.12,28.448-71.685,1.327-99.537
			c-27.12-27.852-71.685-28.446-99.538-1.326c-1.448-9.551-4.259-18.541-8.067-26.92V2331.25h3255.613V688.489z"/>
		<g style="clip-path:url(#SVGID_00000011718104603604206630000008789965537872854920_);">
			<g>
				<g>
					<g>
						<rect x="240.579" y="-285.538" style="fill:#FF585B;" width="4.511" height="833.312"/>
					</g>
					<g>
						<path style="fill:#FFEEED;" d="M251.235,463.346c0,4.686-3.799,8.485-8.486,8.485c-4.686,0-8.485-3.799-8.485-8.485
							c0-4.686,3.799-8.485,8.485-8.485C247.436,454.861,251.235,458.66,251.235,463.346z"/>
						<path style="fill:#FF585B;" d="M242.75,474.087c-5.921,0-10.74-4.819-10.74-10.742c0-5.92,4.819-10.739,10.74-10.739
							c5.921,0,10.74,4.819,10.74,10.739C253.49,469.268,248.671,474.087,242.75,474.087z M242.75,457.116
							c-3.436,0-6.23,2.793-6.23,6.229c0,3.436,2.794,6.231,6.23,6.231c3.436,0,6.23-2.795,6.23-6.231
							C248.98,459.909,246.186,457.116,242.75,457.116z"/>
					</g>
					<g>
						<path style="fill:#FFEEED;" d="M251.235,439.69c0,4.686-3.799,8.485-8.486,8.485c-4.686,0-8.485-3.799-8.485-8.485
							c0-4.687,3.799-8.486,8.485-8.486C247.436,431.204,251.235,435.003,251.235,439.69z"/>
						<path style="fill:#FF585B;" d="M242.75,450.43c-5.921,0-10.74-4.819-10.74-10.739c0-5.923,4.819-10.742,10.74-10.742
							c5.921,0,10.74,4.819,10.74,10.742C253.49,445.611,248.671,450.43,242.75,450.43z M242.75,433.46
							c-3.436,0-6.23,2.796-6.23,6.232c0,3.435,2.794,6.228,6.23,6.228c3.436,0,6.23-2.793,6.23-6.228
							C248.98,436.255,246.186,433.46,242.75,433.46z"/>
					</g>
					<g>
						<path style="fill:#FFEEED;" d="M251.235,416.033c0,4.687-3.799,8.486-8.486,8.486c-4.686,0-8.485-3.799-8.485-8.486
							c0-4.686,3.799-8.485,8.485-8.485C247.436,407.548,251.235,411.347,251.235,416.033z"/>
						<path style="fill:#FF585B;" d="M242.75,426.773c-5.921,0-10.74-4.819-10.74-10.739c0-5.923,4.819-10.742,10.74-10.742
							c5.921,0,10.74,4.819,10.74,10.742C253.49,421.954,248.671,426.773,242.75,426.773z M242.75,409.803
							c-3.436,0-6.23,2.796-6.23,6.232c0,3.436,2.794,6.228,6.23,6.228c3.436,0,6.23-2.792,6.23-6.228
							C248.98,412.599,246.186,409.803,242.75,409.803z"/>
					</g>
				</g>
				<g>
					
						<radialGradient id="SVGID_00000079482963143221570760000004956167215195618990_" cx="-5389.1255" cy="-5815.0313" r="221.63" gradientTransform="matrix(0.828 -0.0049 0.0049 0.828 4736.6499 5461.2876)" gradientUnits="userSpaceOnUse">
						<stop  offset="0.317" style="stop-color:#FFBABB"/>
						<stop  offset="0.5812" style="stop-color:#FFDBDB"/>
						<stop  offset="0.8441" style="stop-color:#FFF5F5"/>
						<stop  offset="1" style="stop-color:#FFFFFF"/>
					</radialGradient>
					
						<circle style="fill:url(#SVGID_00000079482963143221570760000004956167215195618990_);" cx="245.96" cy="672.848" r="183.513"/>
					
						<linearGradient id="SVGID_00000149376794680445710540000013911950066752520612_" gradientUnits="userSpaceOnUse" x1="422.3849" y1="34.1692" x2="592.3692" y2="34.1692" gradientTransform="matrix(0.9998 0.0174 -0.0174 0.9998 -369.6425 588.6811)">
						<stop  offset="0" style="stop-color:#FF9696"/>
						<stop  offset="0.2188" style="stop-color:#FF9090"/>
						<stop  offset="0.5191" style="stop-color:#FF7E7F"/>
						<stop  offset="0.8654" style="stop-color:#FF6164"/>
						<stop  offset="1" style="stop-color:#FF5457"/>
					</linearGradient>
					<path style="fill:url(#SVGID_00000149376794680445710540000013911950066752520612_);" d="M409.163,574.886
						c-2.602-43.941-39.355-82.936-93.966-80.382c-43.613,2.042-72.423,43.984-72.423,43.984s-28.693-42.016-72.309-44.177
						c-54.595-2.697-91.461,36.203-94.173,80.136c-2.685,43.415,27.839,82.625,52.484,109.277
						c33.503,36.231,84.11,73.126,113.688,90.275c29.622-17.073,80.33-53.836,113.93-89.975
						C381.112,657.436,411.736,618.313,409.163,574.886z"/>
					
						<linearGradient id="SVGID_00000067207776406072351270000017842614002406324390_" gradientUnits="userSpaceOnUse" x1="747.099" y1="34.1692" x2="552.5566" y2="34.1692" gradientTransform="matrix(0.9998 0.0174 -0.0174 0.9998 -369.6425 588.6811)">
						<stop  offset="0" style="stop-color:#FF9696"/>
						<stop  offset="0.2188" style="stop-color:#FF9090"/>
						<stop  offset="0.5191" style="stop-color:#FF7E7F"/>
						<stop  offset="0.8654" style="stop-color:#FF6164"/>
						<stop  offset="1" style="stop-color:#FF5457"/>
					</linearGradient>
					<path style="fill:url(#SVGID_00000067207776406072351270000017842614002406324390_);" d="M409.163,574.886
						c-2.602-43.941-39.355-82.936-93.966-80.382c-43.613,2.042-72.423,43.984-72.423,43.984l-0.311,235.51
						c29.622-17.073,80.33-53.836,113.93-89.975C381.112,657.436,411.736,618.313,409.163,574.886z"/>
				</g>
			</g>
			<g>
				<g>
					<g>
						<rect x="2319.219" y="-285.538" style="fill:#FF585B;" width="4.511" height="749.559"/>
					</g>
					<g>
						<path style="fill:#FFEEED;" d="M2329.874,379.595c0,4.686-3.799,8.485-8.486,8.485c-4.686,0-8.485-3.799-8.485-8.485
							c0-4.687,3.799-8.486,8.485-8.486C2326.075,371.109,2329.874,374.908,2329.874,379.595z"/>
						<path style="fill:#FF585B;" d="M2321.389,390.336c-5.923,0-10.742-4.819-10.742-10.742c0-5.92,4.819-10.739,10.742-10.739
							c5.923,0,10.74,4.819,10.74,10.739C2332.129,385.517,2327.312,390.336,2321.389,390.336z M2321.389,373.366
							c-3.436,0-6.231,2.793-6.231,6.229c0,3.436,2.795,6.231,6.231,6.231s6.23-2.795,6.23-6.231
							C2327.619,376.159,2324.825,373.366,2321.389,373.366z"/>
					</g>
					<g>
						<path style="fill:#FFEEED;" d="M2329.874,355.938c0,4.687-3.799,8.486-8.486,8.486c-4.686,0-8.485-3.799-8.485-8.486
							c0-4.686,3.799-8.485,8.485-8.485C2326.075,347.453,2329.874,351.252,2329.874,355.938z"/>
						<path style="fill:#FF585B;" d="M2321.389,366.679c-5.923,0-10.742-4.819-10.742-10.742c0-5.92,4.819-10.739,10.742-10.739
							c5.923,0,10.74,4.819,10.74,10.739C2332.129,361.861,2327.312,366.679,2321.389,366.679z M2321.389,349.709
							c-3.436,0-6.231,2.793-6.231,6.229c0,3.436,2.795,6.231,6.231,6.231s6.23-2.795,6.23-6.231
							C2327.619,352.502,2324.825,349.709,2321.389,349.709z"/>
					</g>
					<g>
						<path style="fill:#FFEEED;" d="M2329.874,332.282c0,4.686-3.799,8.485-8.486,8.485c-4.686,0-8.485-3.799-8.485-8.485
							c0-4.687,3.799-8.486,8.485-8.486C2326.075,323.796,2329.874,327.595,2329.874,332.282z"/>
						<path style="fill:#FF585B;" d="M2321.389,343.022c-5.923,0-10.742-4.818-10.742-10.742c0-5.92,4.819-10.739,10.742-10.739
							c5.923,0,10.74,4.819,10.74,10.739C2332.129,338.204,2327.312,343.022,2321.389,343.022z M2321.389,326.053
							c-3.436,0-6.231,2.792-6.231,6.228c0,3.436,2.795,6.231,6.231,6.231s6.23-2.795,6.23-6.231
							C2327.619,328.845,2324.825,326.053,2321.389,326.053z"/>
					</g>
				</g>
				<g>
					
						<radialGradient id="SVGID_00000076587423295867508810000002005251983776321669_" cx="-2878.1812" cy="-5901.3208" r="221.63" gradientTransform="matrix(0.828 -0.0049 0.0049 0.828 4736.6499 5461.2876)" gradientUnits="userSpaceOnUse">
						<stop  offset="0.317" style="stop-color:#FFBABB"/>
						<stop  offset="0.5812" style="stop-color:#FFDBDB"/>
						<stop  offset="0.8441" style="stop-color:#FFF5F5"/>
						<stop  offset="1" style="stop-color:#FFFFFF"/>
					</radialGradient>
					
						<circle style="fill:url(#SVGID_00000076587423295867508810000002005251983776321669_);" cx="2324.599" cy="589.097" r="183.513"/>
					
						<linearGradient id="SVGID_00000008107116291133869850000003485764381376048795_" gradientUnits="userSpaceOnUse" x1="2499.3528" y1="-85.7457" x2="2669.3372" y2="-85.7457" gradientTransform="matrix(0.9998 0.0174 -0.0174 0.9998 -369.6425 588.6811)">
						<stop  offset="0" style="stop-color:#FF9696"/>
						<stop  offset="0.2188" style="stop-color:#FF9090"/>
						<stop  offset="0.5191" style="stop-color:#FF7E7F"/>
						<stop  offset="0.8654" style="stop-color:#FF6164"/>
						<stop  offset="1" style="stop-color:#FF5457"/>
					</linearGradient>
					<path style="fill:url(#SVGID_00000008107116291133869850000003485764381376048795_);" d="M2487.802,491.135
						c-2.602-43.941-39.355-82.937-93.966-80.383c-43.613,2.043-72.422,43.984-72.422,43.984s-28.693-42.016-72.31-44.177
						c-54.595-2.697-91.46,36.203-94.173,80.136c-2.685,43.415,27.839,82.625,52.484,109.277
						c33.504,36.23,84.11,73.126,113.688,90.275c29.622-17.073,80.329-53.835,113.93-89.975
						C2459.751,573.685,2490.375,534.561,2487.802,491.135z"/>
					
						<linearGradient id="SVGID_00000118357422479946706830000002114384823361343135_" gradientUnits="userSpaceOnUse" x1="2824.0669" y1="-85.7457" x2="2629.5244" y2="-85.7457" gradientTransform="matrix(0.9998 0.0174 -0.0174 0.9998 -369.6425 588.6811)">
						<stop  offset="0" style="stop-color:#FF9696"/>
						<stop  offset="0.2188" style="stop-color:#FF9090"/>
						<stop  offset="0.5191" style="stop-color:#FF7E7F"/>
						<stop  offset="0.8654" style="stop-color:#FF6164"/>
						<stop  offset="1" style="stop-color:#FF5457"/>
					</linearGradient>
					<path style="fill:url(#SVGID_00000118357422479946706830000002114384823361343135_);" d="M2487.802,491.135
						c-2.602-43.941-39.355-82.937-93.966-80.383c-43.613,2.043-72.422,43.984-72.422,43.984l-0.311,235.51
						c29.622-17.073,80.329-53.835,113.93-89.975C2459.751,573.685,2490.375,534.561,2487.802,491.135z"/>
				</g>
			</g>
			<g>
				<g>
					<g>
						<rect x="2010.415" y="-285.538" style="fill:#FF585B;" width="3.459" height="1177.92"/>
					</g>
					<g>
						<path style="fill:#FFEEED;" d="M2018.585,827.645c0,3.593-2.913,6.506-6.507,6.506s-6.507-2.913-6.507-6.506
							s2.913-6.507,6.507-6.507S2018.585,824.051,2018.585,827.645z"/>
						<path style="fill:#FF585B;" d="M2012.079,835.879c-4.542,0-8.236-3.694-8.236-8.234c0-4.543,3.694-8.237,8.236-8.237
							c4.541,0,8.236,3.694,8.236,8.237C2020.315,832.186,2016.62,835.879,2012.079,835.879z M2012.079,822.867
							c-2.634,0-4.776,2.144-4.776,4.778c0,2.634,2.142,4.775,4.776,4.775c2.634,0,4.776-2.14,4.776-4.775
							C2016.855,825.011,2014.713,822.867,2012.079,822.867z"/>
					</g>
					<g>
						<circle style="fill:#FFEEED;" cx="2012.079" cy="809.505" r="6.507"/>
						<path style="fill:#FF585B;" d="M2012.079,817.74c-4.542,0-8.236-3.694-8.236-8.234c0-4.543,3.694-8.237,8.236-8.237
							c4.541,0,8.236,3.694,8.236,8.237C2020.315,814.046,2016.62,817.74,2012.079,817.74z M2012.079,804.728
							c-2.634,0-4.776,2.144-4.776,4.778c0,2.634,2.142,4.775,4.776,4.775c2.634,0,4.776-2.141,4.776-4.775
							C2016.855,806.872,2014.713,804.728,2012.079,804.728z"/>
					</g>
					<g>
						<path style="fill:#FFEEED;" d="M2018.585,791.366c0,3.593-2.913,6.506-6.507,6.506s-6.507-2.913-6.507-6.506
							s2.913-6.507,6.507-6.507S2018.585,787.773,2018.585,791.366z"/>
						<path style="fill:#FF585B;" d="M2012.079,799.601c-4.542,0-8.236-3.695-8.236-8.234c0-4.542,3.694-8.237,8.236-8.237
							c4.541,0,8.236,3.694,8.236,8.237C2020.315,795.907,2016.62,799.601,2012.079,799.601z M2012.079,786.589
							c-2.634,0-4.776,2.144-4.776,4.778c0,2.634,2.142,4.775,4.776,4.775c2.634,0,4.776-2.141,4.776-4.775
							C2016.855,788.733,2014.713,786.589,2012.079,786.589z"/>
					</g>
				</g>
				<g>
					
						<radialGradient id="SVGID_00000031205667017884422990000012260442209329678226_" cx="-3255.4878" cy="-5421.4419" r="169.9404" gradientTransform="matrix(0.828 -0.0049 0.0049 0.828 4736.6499 5461.2876)" gradientUnits="userSpaceOnUse">
						<stop  offset="0.317" style="stop-color:#FFBABB"/>
						<stop  offset="0.5812" style="stop-color:#FFDBDB"/>
						<stop  offset="0.8441" style="stop-color:#FFF5F5"/>
						<stop  offset="1" style="stop-color:#FFFFFF"/>
					</radialGradient>
					
						<circle style="fill:url(#SVGID_00000031205667017884422990000012260442209329678226_);" cx="2014.541" cy="988.285" r="140.713"/>
					
						<linearGradient id="SVGID_00000111161700853136288170000007768039794613831309_" gradientUnits="userSpaceOnUse" x1="2241.6626" y1="327.9579" x2="2372.0024" y2="327.9579" gradientTransform="matrix(0.9998 0.0174 -0.0174 0.9998 -369.6425 588.6811)">
						<stop  offset="0" style="stop-color:#FF9696"/>
						<stop  offset="0.2188" style="stop-color:#FF9090"/>
						<stop  offset="0.5191" style="stop-color:#FF7E7F"/>
						<stop  offset="0.8654" style="stop-color:#FF6164"/>
						<stop  offset="1" style="stop-color:#FF5457"/>
					</linearGradient>
					<path style="fill:url(#SVGID_00000111161700853136288170000007768039794613831309_);" d="M2139.681,913.171
						c-1.995-33.693-30.177-63.594-72.05-61.636c-33.442,1.567-55.532,33.726-55.532,33.726s-22.001-32.217-55.445-33.874
						c-41.862-2.068-70.129,27.76-72.209,61.446c-2.059,33.29,21.346,63.355,40.243,83.791
						c25.69,27.781,64.493,56.072,87.173,69.221c22.713-13.091,61.595-41.28,87.358-68.991
						C2118.172,976.468,2141.653,946.47,2139.681,913.171z"/>
					
						<linearGradient id="SVGID_00000053544000251967772580000001249643475735532472_" gradientUnits="userSpaceOnUse" x1="2490.6458" y1="327.9579" x2="2341.4753" y2="327.9579" gradientTransform="matrix(0.9998 0.0174 -0.0174 0.9998 -369.6425 588.6811)">
						<stop  offset="0" style="stop-color:#FF9696"/>
						<stop  offset="0.2188" style="stop-color:#FF9090"/>
						<stop  offset="0.5191" style="stop-color:#FF7E7F"/>
						<stop  offset="0.8654" style="stop-color:#FF6164"/>
						<stop  offset="1" style="stop-color:#FF5457"/>
					</linearGradient>
					<path style="fill:url(#SVGID_00000053544000251967772580000001249643475735532472_);" d="M2139.681,913.171
						c-1.995-33.693-30.177-63.594-72.05-61.636c-33.442,1.567-55.532,33.726-55.532,33.726l-0.238,180.583
						c22.713-13.091,61.595-41.28,87.358-68.991C2118.172,976.468,2141.653,946.47,2139.681,913.171z"/>
				</g>
			</g>
			<g>
				<g>
					<g>
						<rect x="566.148" y="-285.538" style="fill:#FF585B;" width="3.459" height="1193.956"/>
					</g>
					<g>
						<path style="fill:#FFEEED;" d="M574.319,843.682c0,3.594-2.913,6.507-6.507,6.507c-3.593,0-6.506-2.913-6.506-6.507
							c0-3.593,2.913-6.506,6.506-6.506C571.406,837.176,574.319,840.089,574.319,843.682z"/>
						<path style="fill:#FF585B;" d="M567.812,851.919c-4.542,0-8.236-3.694-8.236-8.237c0-4.543,3.694-8.237,8.236-8.237
							c4.541,0,8.237,3.694,8.237,8.237C576.049,848.224,572.353,851.919,567.812,851.919z M567.812,838.904
							c-2.634,0-4.776,2.144-4.776,4.778c0,2.634,2.142,4.778,4.776,4.778c2.634,0,4.777-2.143,4.777-4.778
							C572.589,841.048,570.446,838.904,567.812,838.904z"/>
					</g>
					<g>
						<path style="fill:#FFEEED;" d="M574.319,825.543c0,3.593-2.913,6.507-6.507,6.507c-3.593,0-6.506-2.913-6.506-6.507
							c0-3.593,2.913-6.507,6.506-6.507C571.406,819.036,574.319,821.95,574.319,825.543z"/>
						<path style="fill:#FF585B;" d="M567.812,833.78c-4.542,0-8.236-3.695-8.236-8.237c0-4.543,3.694-8.237,8.236-8.237
							c4.541,0,8.237,3.694,8.237,8.237C576.049,830.085,572.353,833.78,567.812,833.78z M567.812,820.765
							c-2.634,0-4.776,2.144-4.776,4.778c0,2.634,2.142,4.778,4.776,4.778c2.634,0,4.777-2.144,4.777-4.778
							C572.589,822.909,570.446,820.765,567.812,820.765z"/>
					</g>
					<g>
						<path style="fill:#FFEEED;" d="M574.319,807.403c0,3.593-2.913,6.507-6.507,6.507c-3.593,0-6.506-2.913-6.506-6.507
							s2.913-6.506,6.506-6.506C571.406,800.897,574.319,803.81,574.319,807.403z"/>
						<path style="fill:#FF585B;" d="M567.812,815.641c-4.542,0-8.236-3.694-8.236-8.237c0-4.542,3.694-8.237,8.236-8.237
							c4.541,0,8.237,3.694,8.237,8.237C576.049,811.946,572.353,815.641,567.812,815.641z M567.812,802.626
							c-2.634,0-4.776,2.144-4.776,4.778c0,2.634,2.142,4.778,4.776,4.778c2.634,0,4.777-2.144,4.777-4.778
							C572.589,804.77,570.446,802.626,567.812,802.626z"/>
					</g>
				</g>
				<g>
					
						<radialGradient id="SVGID_00000033357317579468606330000002584136209028990102_" cx="-4999.8247" cy="-5412.3955" r="169.9402" gradientTransform="matrix(0.828 -0.0049 0.0049 0.828 4736.6499 5461.2876)" gradientUnits="userSpaceOnUse">
						<stop  offset="0.317" style="stop-color:#FFBABB"/>
						<stop  offset="0.5812" style="stop-color:#FFDBDB"/>
						<stop  offset="0.8441" style="stop-color:#FFF5F5"/>
						<stop  offset="1" style="stop-color:#FFFFFF"/>
					</radialGradient>
					
						<circle style="fill:url(#SVGID_00000033357317579468606330000002584136209028990102_);" cx="570.274" cy="1004.323" r="140.713"/>
					
						<linearGradient id="SVGID_00000121965778681432635920000017097516292454962856_" gradientUnits="userSpaceOnUse" x1="797.824" y1="369.1266" x2="928.1636" y2="369.1266" gradientTransform="matrix(0.9998 0.0174 -0.0174 0.9998 -369.6425 588.6811)">
						<stop  offset="0" style="stop-color:#FF9696"/>
						<stop  offset="0.2188" style="stop-color:#FF9090"/>
						<stop  offset="0.5191" style="stop-color:#FF7E7F"/>
						<stop  offset="0.8654" style="stop-color:#FF6164"/>
						<stop  offset="1" style="stop-color:#FF5457"/>
					</linearGradient>
					<path style="fill:url(#SVGID_00000121965778681432635920000017097516292454962856_);" d="M695.414,929.208
						c-1.995-33.692-30.176-63.593-72.05-61.635c-33.441,1.566-55.532,33.726-55.532,33.726s-22.001-32.217-55.445-33.875
						c-41.863-2.068-70.13,27.76-72.209,61.446c-2.059,33.29,21.346,63.355,40.243,83.791
						c25.689,27.781,64.493,56.072,87.173,69.221c22.713-13.091,61.595-41.28,87.359-68.991
						C673.905,992.505,697.387,962.507,695.414,929.208z"/>
					
						<linearGradient id="SVGID_00000114779300489004725700000003487994520235647875_" gradientUnits="userSpaceOnUse" x1="1046.8064" y1="369.1266" x2="897.6359" y2="369.1266" gradientTransform="matrix(0.9998 0.0174 -0.0174 0.9998 -369.6425 588.6811)">
						<stop  offset="0" style="stop-color:#FF9696"/>
						<stop  offset="0.2188" style="stop-color:#FF9090"/>
						<stop  offset="0.5191" style="stop-color:#FF7E7F"/>
						<stop  offset="0.8654" style="stop-color:#FF6164"/>
						<stop  offset="1" style="stop-color:#FF5457"/>
					</linearGradient>
					<path style="fill:url(#SVGID_00000114779300489004725700000003487994520235647875_);" d="M695.414,929.208
						c-1.995-33.692-30.176-63.593-72.05-61.635c-33.441,1.566-55.532,33.726-55.532,33.726l-0.238,180.583
						c22.713-13.091,61.595-41.28,87.359-68.991C673.905,992.505,697.387,962.507,695.414,929.208z"/>
				</g>
			</g>
			<g>
				<g>
					<g>
						<rect x="744.343" y="-285.538" style="fill:#FF585B;" width="3.459" height="652.244"/>
					</g>
					<g>
						<path style="fill:#FFEEED;" d="M752.513,301.971c0,3.593-2.913,6.506-6.507,6.506c-3.593,0-6.507-2.913-6.507-6.506
							c0-3.593,2.913-6.507,6.507-6.507C749.6,295.464,752.513,298.378,752.513,301.971z"/>
						<path style="fill:#FF585B;" d="M746.006,310.207c-4.541,0-8.236-3.694-8.236-8.237c0-4.54,3.695-8.234,8.236-8.234
							s8.237,3.694,8.237,8.234C754.243,306.512,750.547,310.207,746.006,310.207z M746.006,297.195
							c-2.634,0-4.776,2.141-4.776,4.775c0,2.634,2.142,4.778,4.776,4.778c2.634,0,4.778-2.144,4.778-4.778
							C750.784,299.336,748.641,297.195,746.006,297.195z"/>
					</g>
					<g>
						<circle style="fill:#FFEEED;" cx="746.007" cy="283.831" r="6.507"/>
						<path style="fill:#FF585B;" d="M746.006,292.068c-4.541,0-8.236-3.694-8.236-8.237c0-4.539,3.695-8.234,8.236-8.234
							s8.237,3.694,8.237,8.234C754.243,288.373,750.547,292.068,746.006,292.068z M746.006,279.056
							c-2.634,0-4.776,2.141-4.776,4.775c0,2.634,2.142,4.778,4.776,4.778c2.634,0,4.778-2.144,4.778-4.778
							C750.784,281.197,748.641,279.056,746.006,279.056z"/>
					</g>
					<g>
						<path style="fill:#FFEEED;" d="M752.513,265.692c0,3.593-2.913,6.506-6.507,6.506c-3.593,0-6.507-2.913-6.507-6.506
							c0-3.593,2.913-6.507,6.507-6.507C749.6,259.186,752.513,262.099,752.513,265.692z"/>
						<path style="fill:#FF585B;" d="M746.006,273.929c-4.541,0-8.236-3.694-8.236-8.237c0-4.54,3.695-8.234,8.236-8.234
							s8.237,3.694,8.237,8.234C754.243,270.234,750.547,273.929,746.006,273.929z M746.006,260.917
							c-2.634,0-4.776,2.14-4.776,4.775c0,2.634,2.142,4.778,4.776,4.778c2.634,0,4.778-2.144,4.778-4.778
							C750.784,263.057,748.641,260.917,746.006,260.917z"/>
					</g>
				</g>
				<g>
					
						<radialGradient id="SVGID_00000150085837060240381260000006800990411346088332_" cx="-4780.75" cy="-6065.3398" r="169.9403" gradientTransform="matrix(0.828 -0.0049 0.0049 0.828 4736.6499 5461.2876)" gradientUnits="userSpaceOnUse">
						<stop  offset="0.317" style="stop-color:#FFBABB"/>
						<stop  offset="0.5812" style="stop-color:#FFDBDB"/>
						<stop  offset="0.8441" style="stop-color:#FFF5F5"/>
						<stop  offset="1" style="stop-color:#FFFFFF"/>
					</radialGradient>
					
						<circle style="fill:url(#SVGID_00000150085837060240381260000006800990411346088332_);" cx="748.468" cy="462.612" r="140.713"/>
					
						<linearGradient id="SVGID_00000099644687404144437560000011767778929881908637_" gradientUnits="userSpaceOnUse" x1="966.5732" y1="-175.6301" x2="1096.9131" y2="-175.6301" gradientTransform="matrix(0.9998 0.0174 -0.0174 0.9998 -369.6425 588.6811)">
						<stop  offset="0" style="stop-color:#FF9696"/>
						<stop  offset="0.2188" style="stop-color:#FF9090"/>
						<stop  offset="0.5191" style="stop-color:#FF7E7F"/>
						<stop  offset="0.8654" style="stop-color:#FF6164"/>
						<stop  offset="1" style="stop-color:#FF5457"/>
					</linearGradient>
					<path style="fill:url(#SVGID_00000099644687404144437560000011767778929881908637_);" d="M873.609,387.497
						c-1.995-33.693-30.177-63.594-72.051-61.636c-33.441,1.567-55.531,33.726-55.531,33.726s-22.001-32.217-55.445-33.874
						c-41.862-2.068-70.129,27.76-72.209,61.446c-2.059,33.29,21.346,63.355,40.243,83.791
						c25.69,27.781,64.493,56.072,87.173,69.221c22.714-13.091,61.595-41.28,87.359-68.991
						C852.1,450.794,875.581,420.796,873.609,387.497z"/>
					
						<linearGradient id="SVGID_00000098198432880707440750000007328270909752249748_" gradientUnits="userSpaceOnUse" x1="1215.5563" y1="-175.6301" x2="1066.386" y2="-175.6301" gradientTransform="matrix(0.9998 0.0174 -0.0174 0.9998 -369.6425 588.6811)">
						<stop  offset="0" style="stop-color:#FF9696"/>
						<stop  offset="0.2188" style="stop-color:#FF9090"/>
						<stop  offset="0.5191" style="stop-color:#FF7E7F"/>
						<stop  offset="0.8654" style="stop-color:#FF6164"/>
						<stop  offset="1" style="stop-color:#FF5457"/>
					</linearGradient>
					<path style="fill:url(#SVGID_00000098198432880707440750000007328270909752249748_);" d="M873.609,387.497
						c-1.995-33.693-30.177-63.594-72.051-61.636c-33.441,1.567-55.531,33.726-55.531,33.726l-0.239,180.583
						c22.714-13.091,61.595-41.28,87.359-68.991C852.1,450.794,875.581,420.796,873.609,387.497z"/>
				</g>
			</g>
		</g>
	</g>
	<!-- <g>
		<g>
			<path style="fill:#FF686A;" d="M1012.092,774.957v-5.118h31.73v5.118h-10.234l-46.06,154.207h-13.306l-46.397-154.207h-9.893
				v-5.118h31.727v5.118h-10.234l37.87,127.256l3.071,15.352h1.363l3.071-15.352l37.53-127.256H1012.092z"/>
			<path style="fill:#FF686A;" d="M1080.669,853.766v-1.362c0-5.459-1.254-10.119-3.753-13.99c-2.505-3.865-6.028-5.8-10.578-5.8
				c-7.964,0-12.621,4.778-13.987,14.331h-9.893c0.905-6.14,3.583-10.971,8.017-14.501c4.434-3.524,9.723-5.289,15.863-5.289
				c7.732,0,13.931,2.561,18.594,7.676c4.66,5.119,6.995,11.317,6.995,18.594v43.669h7.165v5.118h-17.743l0.341-9.553h-1.022
				c-4.093,6.37-9.893,9.553-17.399,9.553c-7.283,0-12.912-1.988-16.888-5.97c-3.982-3.976-5.97-9.265-5.97-15.866
				C1040.412,863.548,1053.83,854.679,1080.669,853.766z M1052.012,880.377c0,11.376,3.753,17.059,11.259,17.059
				c4.775,0,8.751-1.988,11.94-5.97c3.183-3.976,5.001-8.924,5.459-14.841v-18.421
				C1061.564,859.113,1052.012,866.508,1052.012,880.377z"/>
			<path style="fill:#FF686A;" d="M1143.785,896.754v5.459h-31.045v-5.459h9.552v-157.62h-7.165v-5.119h18.765v162.738H1143.785z"/>
			<path style="fill:#FF686A;" d="M1198.71,884.814h10.236c-5.007,11.599-13.082,17.399-24.223,17.399
				c-9.33,0-16.207-3.635-20.641-10.918c-4.434-7.277-6.652-15.464-6.652-24.564c0-10.234,2.158-19.217,6.481-26.952
				c4.317-7.729,11.371-11.599,21.152-11.599c15.919,0,23.883,11.717,23.883,35.139h-36.848v-4.775h25.589
				c0-6.825-1.025-12.795-3.072-17.913c-2.047-5.116-5.233-7.676-9.553-7.676c-10.692,0-16.033,11.147-16.033,33.436
				c0,8.187,1.248,15.411,3.753,21.666c2.5,6.258,6.481,9.38,11.94,9.38C1191.771,897.436,1196.434,893.23,1198.71,884.814z"/>
			<path style="fill:#FF686A;" d="M1282.299,849.332v47.763h7.506v5.118h-18.765v-52.882c0-4.316-1.365-8.07-4.093-11.258
				c-2.731-3.183-6.029-4.775-9.896-4.775c-4.094,0-7.503,1.533-10.234,4.604c-2.728,3.072-4.094,6.884-4.094,11.429v52.882h-19.446
				v-5.118h7.847v-47.763c0-6.363,2.499-11.482,7.506-15.352c5.001-3.865,11.141-5.8,18.421-5.8c7.047,0,13.017,1.994,17.913,5.97
				C1279.853,838.132,1282.299,843.191,1282.299,849.332z"/>
			<path style="fill:#FF686A;" d="M1309.932,902.213v-68.915h-9.893v-5.119h9.893v-26.611h11.599v26.611h9.553v5.119h-9.553v64.138
				h7.506v4.777H1309.932z"/>
			<path style="fill:#FF686A;" d="M1379.188,896.754v5.459h-31.045v-5.459h9.552v-59.362h-7.847v-5.459h19.446v64.821H1379.188z
				 M1369.294,817.262h-11.599v-24.223h11.599V817.262z"/>
			<path style="fill:#FF686A;" d="M1451.859,849.332v47.763h7.506v5.118H1440.6v-52.882c0-4.316-1.366-8.07-4.094-11.258
				c-2.731-3.183-6.028-4.775-9.896-4.775c-4.094,0-7.503,1.533-10.234,4.604c-2.729,3.072-4.094,6.884-4.094,11.429v52.882h-19.446
				v-5.118h7.846v-47.763c0-6.363,2.499-11.482,7.506-15.352c5.001-3.865,11.142-5.8,18.421-5.8c7.048,0,13.018,1.994,17.913,5.97
				C1449.413,838.132,1451.859,843.191,1451.859,849.332z"/>
			<path style="fill:#FF686A;" d="M1514.29,884.814h10.237c-5.007,11.599-13.082,17.399-24.224,17.399
				c-9.329,0-16.207-3.635-20.641-10.918c-4.434-7.277-6.651-15.464-6.651-24.564c0-10.234,2.158-19.217,6.481-26.952
				c4.317-7.729,11.37-11.599,21.152-11.599c15.919,0,23.883,11.717,23.883,35.139h-36.848v-4.775h25.589
				c0-6.825-1.025-12.795-3.071-17.913c-2.047-5.116-5.233-7.676-9.553-7.676c-10.692,0-16.034,11.147-16.034,33.436
				c0,8.187,1.248,15.411,3.753,21.666c2.499,6.258,6.481,9.38,11.94,9.38C1507.351,897.436,1512.014,893.23,1514.29,884.814z"/>
			<path style="fill:#FF686A;" d="M1552.497,772.911l19.787-38.895h10.237l-19.446,38.895H1552.497z"/>
			<path style="fill:#FF686A;" d="M1655.87,821.696h-10.918c0-2.951-0.911-5.4-2.728-7.332c-1.823-1.932-3.982-2.901-6.484-2.901
				c-3.409,0-6.029,1.482-7.847,4.434c-1.824,2.959-2.728,6.601-2.728,10.918c0,8.871,4.775,16.606,14.327,23.199
				c14.554,10.013,21.836,19.449,21.836,28.317c0,7.735-2.387,13.878-7.165,18.424c-4.775,4.551-11.035,6.824-18.765,6.824
				c-8.187,0-14.5-2.783-18.935-8.36c-4.434-5.571-6.652-12.451-6.652-20.641h11.599c-0.229,6.824,0.852,12.454,3.239,16.888
				c2.391,4.437,5.973,6.654,10.748,6.654c4.777,0,8.36-1.929,10.748-5.799c2.388-3.865,3.583-8.531,3.583-13.99
				c0-9.776-6.029-18.421-18.083-25.927c-12.058-7.732-18.081-16.26-18.081-25.589c0-6.14,2.047-11.089,6.14-14.841
				c4.094-3.753,9.435-5.629,16.034-5.629c5.459,0,10.007,1.365,13.649,4.093C1653.025,813.168,1655.189,816.921,1655.87,821.696z"
				/>
		</g>
		<g>
			<path style="fill:#FF686A;" d="M1165.786,1111.868V963.461h-7.506v-5.459h39.576c21.836,0,39.065,7.964,51.689,23.883
				c12.622,15.922,18.935,34.457,18.935,55.609c0,22.295-6.372,41.17-19.105,56.634c-12.742,15.464-29.912,23.199-51.519,23.199
				h-39.576v-5.459H1165.786z M1177.388,1111.868h20.468c17.743,0,32.011-7.506,42.818-22.517
				c10.801-15.009,16.207-32.293,16.207-51.857c0-20.242-5.236-37.641-15.696-52.2c-10.463-14.55-24.905-21.833-43.329-21.833
				h-20.468V1111.868z"/>
			<path style="fill:#FF686A;" d="M1329.205,1041.928v-1.362c0-5.459-1.254-10.119-3.753-13.99
				c-2.505-3.865-6.029-5.799-10.578-5.799c-7.964,0-12.621,4.778-13.987,14.33h-9.893c0.905-6.14,3.583-10.971,8.017-14.501
				c4.434-3.524,9.723-5.289,15.863-5.289c7.732,0,13.931,2.561,18.594,7.676c4.66,5.119,6.995,11.317,6.995,18.594v43.669h7.165
				v5.119h-17.743l0.34-9.553h-1.022c-4.093,6.37-9.893,9.553-17.399,9.553c-7.283,0-12.912-1.988-16.888-5.97
				c-3.982-3.976-5.97-9.265-5.97-15.866C1288.948,1051.71,1302.365,1042.842,1329.205,1041.928z M1300.547,1068.539
				c0,11.376,3.753,17.059,11.259,17.059c4.774,0,8.75-1.988,11.94-5.97c3.183-3.976,5.001-8.924,5.459-14.841v-18.421
				C1310.1,1047.276,1300.547,1054.67,1300.547,1068.539z"/>
			<path style="fill:#FF686A;" d="M1405.628,1069.224v-58.681h18.765v5.116h-7.506v145.682c0,4.998-2.105,9.15-6.311,12.451
				c-4.214,3.295-8.818,4.948-13.82,4.948h-3.412v-5.119c7.732,0,11.602-4.094,11.602-12.281v-62.778l0.681-14.327h-0.681
				c-3.189,4.552-7.967,6.822-14.33,6.822c-7.054,0-12.965-2.1-17.74-6.311c-4.778-4.205-7.165-9.382-7.165-15.523v-53.565h-7.846
				v-5.116h19.446v58.681c0,4.552,1.307,8.416,3.924,11.599c2.611,3.189,5.741,4.775,9.383,4.775c3.864,0,7.335-1.645,10.404-4.945
				C1404.093,1077.359,1405.628,1073.547,1405.628,1069.224z"/>
		</g>
		<g>
			<path style="fill:#FF686A;" d="M1114.217,584.149h66.868v-55.61h-7.165v-5.459h26.611v5.459h-7.846v148.408h7.846v5.459h-26.611
				v-5.459h7.165v-86.999h-66.868v86.999h7.505v5.459h-26.954v-5.459h7.506V528.539h-7.506v-5.459h26.954v5.459h-7.505V584.149z"/>
			<path style="fill:#FF686A;" d="M1257.85,607.007v-1.363c0-5.459-1.254-10.119-3.753-13.99c-2.505-3.865-6.029-5.799-10.578-5.799
				c-7.964,0-12.622,4.777-13.987,14.33h-9.893c0.905-6.14,3.583-10.971,8.017-14.501c4.434-3.524,9.723-5.288,15.863-5.288
				c7.732,0,13.931,2.56,18.594,7.676c4.66,5.119,6.994,11.318,6.994,18.594v43.669h7.166v5.118h-17.743l0.34-9.553h-1.022
				c-4.094,6.37-9.893,9.553-17.399,9.553c-7.282,0-12.912-1.988-16.888-5.97c-3.982-3.976-5.97-9.265-5.97-15.866
				C1217.592,616.789,1231.009,607.92,1257.85,607.007z M1229.191,633.619c0,11.376,3.753,17.058,11.259,17.058
				c4.775,0,8.751-1.988,11.94-5.97c3.183-3.976,5.001-8.924,5.459-14.841v-18.421
				C1238.744,612.354,1229.191,619.749,1229.191,633.619z"/>
			<path style="fill:#FF686A;" d="M1311.072,655.454v88.364h-21.152v-5.459h9.553V580.737h-7.846v-5.116h27.974
				c11.141,0,19.105,3.982,23.882,11.94c4.775,7.964,7.166,17.176,7.166,27.636c0,10.915-2.505,20.356-7.506,28.317
				c-5.007,7.964-12.853,11.94-23.542,11.94H1311.072z M1311.072,650.336h8.528c7.276,0,12.454-3.635,15.525-10.915
				c3.069-7.277,4.604-15.355,4.604-24.223c0-8.871-1.594-16.83-4.778-23.883c-3.186-7.048-8.305-10.577-15.352-10.577h-8.528
				V650.336z"/>
			<path style="fill:#FF686A;" d="M1385.443,655.454v88.364h-21.152v-5.459h9.553V580.737h-7.847v-5.116h27.974
				c11.141,0,19.105,3.982,23.883,11.94c4.775,7.964,7.165,17.176,7.165,27.636c0,10.915-2.505,20.356-7.506,28.317
				c-5.007,7.964-12.853,11.94-23.542,11.94H1385.443z M1385.443,650.336h8.528c7.276,0,12.454-3.635,15.525-10.915
				c3.069-7.277,4.604-15.355,4.604-24.223c0-8.871-1.594-16.83-4.778-23.883c-3.186-7.048-8.305-10.577-15.352-10.577h-8.528
				V650.336z"/>
			<path style="fill:#FF686A;" d="M1486.428,634.302v-58.681h18.764v5.116h-7.505v145.682c0,4.998-2.105,9.15-6.311,12.451
				c-4.214,3.295-8.819,4.948-13.82,4.948h-3.412V738.7c7.732,0,11.602-4.093,11.602-12.281v-62.777l0.681-14.328h-0.681
				c-3.189,4.552-7.967,6.822-14.33,6.822c-7.053,0-12.965-2.099-17.74-6.31c-4.778-4.205-7.165-9.383-7.165-15.523v-53.565h-7.846
				v-5.116h19.446v58.681c0,4.552,1.307,8.416,3.924,11.599c2.61,3.189,5.74,4.775,9.382,4.775c3.865,0,7.335-1.644,10.404-4.945
				C1484.892,642.437,1486.428,638.625,1486.428,634.302z"/>
		</g>
	</g>
	<g>
		<path style="fill:#FEF3ED;" d="M1011.833,1643.514v27.985h-6.478v-22.787h-5.597v-5.198H1011.833z"/>
		<path style="fill:#FEF3ED;" d="M1066.321,1665.624h-4.557v5.876h-6.317v-5.876h-15.071v-4.358l13.194-17.752h6.795l-12.234,16.833
			h7.515v-5.239h6.117v5.239h4.557V1665.624z"/>
		<path style="fill:#FEF3ED;" d="M1135.759,1648.712v7.397h12.953v5.197h-12.953v10.193h-6.475v-27.985h21.149v5.198H1135.759z"/>
		<path style="fill:#FEF3ED;" d="M1200.484,1666.302v5.197h-21.669v-27.985h21.149v5.198h-14.712v6.078h12.991v5.036h-12.991v6.475
			H1200.484z"/>
		<path style="fill:#FEF3ED;" d="M1253.932,1659.486c0.905,1.187,1.36,2.646,1.36,4.378c0,2.452-0.954,4.337-2.857,5.656
			c-1.906,1.319-4.687,1.979-8.337,1.979h-14.472v-27.985h13.672c3.409,0,6.029,0.655,7.856,1.962
			c1.823,1.304,2.737,3.077,2.737,5.315c0,1.36-0.326,2.572-0.978,3.638c-0.655,1.066-1.565,1.906-2.74,2.519
			C1251.774,1657.454,1253.025,1658.3,1253.932,1659.486z M1236.063,1648.392v6.598h6.437c1.598,0,2.81-0.281,3.635-0.84
			c0.828-0.561,1.24-1.386,1.24-2.478c0-1.093-0.411-1.912-1.24-2.461c-0.825-0.546-2.038-0.819-3.635-0.819H1236.063z
			 M1247.475,1665.782c0.866-0.558,1.301-1.425,1.301-2.599c0-2.317-1.721-3.477-5.156-3.477h-7.556v6.916h7.556
			C1245.322,1666.622,1246.608,1666.343,1247.475,1665.782z"/>
		<path style="fill:#FEF3ED;" d="M1302.027,1671.499l-5.398-7.796h-0.32h-5.638v7.796h-6.475v-27.985h12.113
			c2.478,0,4.631,0.414,6.454,1.239c1.827,0.828,3.233,2,4.22,3.518c0.984,1.522,1.477,3.319,1.477,5.398s-0.499,3.873-1.498,5.377
			c-0.998,1.506-2.42,2.661-4.258,3.459l6.275,8.995H1302.027z M1300.385,1650.051c-1.013-0.839-2.49-1.259-4.437-1.259h-5.277
			v9.755h5.277c1.947,0,3.424-0.426,4.437-1.277c1.013-0.855,1.522-2.053,1.522-3.6
			C1301.907,1652.098,1301.399,1650.891,1300.385,1650.051z"/>
		<path style="fill:#FEF3ED;" d="M1340.663,1668.66c-2.226-2.211-3.339-5.368-3.339-9.473v-15.673h6.478v15.431
			c0,5.013,2.079,7.518,6.234,7.518c2.026,0,3.571-0.607,4.64-1.82c1.063-1.213,1.597-3.11,1.597-5.697v-15.431h6.396v15.673
			c0,4.105-1.113,7.262-3.336,9.473c-2.226,2.214-5.339,3.318-9.336,3.318C1345.999,1671.978,1342.889,1670.874,1340.663,1668.66z"
			/>
		<path style="fill:#FEF3ED;" d="M1410.882,1665.503h-12.995l-2.478,5.996h-6.636l12.474-27.985h6.396l12.513,27.985h-6.795
			L1410.882,1665.503z M1408.844,1660.584l-4.44-10.712l-4.437,10.712H1408.844z"/>
		<path style="fill:#FEF3ED;" d="M1464.891,1671.499l-5.397-7.796h-0.32h-5.638v7.796h-6.475v-27.985h12.113
			c2.478,0,4.631,0.414,6.454,1.239c1.827,0.828,3.233,2,4.22,3.518c0.983,1.522,1.477,3.319,1.477,5.398s-0.499,3.873-1.498,5.377
			c-0.998,1.506-2.419,2.661-4.258,3.459l6.276,8.995H1464.891z M1463.25,1650.051c-1.013-0.839-2.49-1.259-4.437-1.259h-5.277
			v9.755h5.277c1.947,0,3.424-0.426,4.437-1.277c1.013-0.855,1.521-2.053,1.521-3.6
			C1464.771,1652.098,1464.263,1650.891,1463.25,1650.051z"/>
		<path style="fill:#FEF3ED;" d="M1513.462,1661.586v9.914h-6.475v-9.993l-10.836-17.992h6.878l7.476,12.433l7.474-12.433h6.358
			L1513.462,1661.586z"/>
	</g> -->
</g>
</svg>
